# xmcd CD database file
#
# Track frame offsets:
#	150
#	33353
#	61183
#	86758
#	110078
#	135743
#	166628
#	195583
#	225278
#	264593
#	286853
#	313103
#
# Disc length: 4430 seconds
#
# Revision: 0
# Processed by: cddbd v1.5.1PL0 Copyright (c) Steve Scherf et al.
# Submitted via: CDex 1.51
#
DISCID=9b114c0c
DTITLE=Various Artist - Caribbean Jazz Colours
DYEAR=1900
DGENRE=Jazz
TTITLE0=Arturo Tappin - Ska Blues
TTITLE1=Maurice Gordon - Natural Mystic
TTITLE2=Michael Boothman - Spain
TTITLE3=Ricky Brathwaite - Caribbean Breeze
TTITLE4=Ronald Lashley - Bromley
TTITLE5=Maurice Gordon - Come Back Liza
TTITLE6=Michael Boothman - Bluesette
TTITLE7=Maurice Gordon - freedom Jazz Dance
TTITLE8=Ricky Brathwaite -Roxy Roundabout
TTITLE9=Ronald Lashley - Hot Sweets - Spanish Images
TTITLE10=Daniel Louis - Little Sunflower
TTITLE11=Luther Francois -Dem Two
EXTD=
EXTT0=
EXTT1=
EXTT2=
EXTT3=
EXTT4=
EXTT5=
EXTT6=
EXTT7=
EXTT8=
EXTT9=
EXTT10=
EXTT11=
PLAYORDER=
